<?xml version="1.0" encoding="UTF-8"?>
<svg id="_圖層_3" data-name="圖層_3" xmlns="http://www.w3.org/2000/svg" viewBox="0 0 1382 2213">
  <defs>
    <style>
      .cls-1, .cls-2 {
        fill: #fff;
      }

      .cls-2 {
        stroke: #ccc;
        stroke-miterlimit: 10;
        stroke-width: 3px;
      }

      .cls-3 {
        fill: #ccc;
      }
    </style>
  </defs>
  <path class="cls-3" d="M727.5,1575.5s-24.67-29-24.83,0v12.61s-11.17,15.39-14.17,29.39c0,0-18,12-28,17-9.34,4.67-29,25-31,62s16,42,5,45c0,0-69-2-81,16s167,3,167,3c0,0,37,0,14-22l1-44s7,10,22,13,18.32,9.42,21,13c3,4,35,9,8-23l-35-31-1-22s35-13,15-54l-2-19s-4-17-19,6c0,0-7-1-17-2Z"/>
  <path class="cls-2" d="M857.41,1741.81c-.98-9.66-6.83-28.02-37.32-25.78-2.91.21-5.59,1.68-7.33,4.02-4.34,5.86-12.4,17.77-13.26,26.45-.98,9.78-1.96,32.01,28.91,32.03,1.31,0,2.61-.24,3.82-.72l6.08-2.43c1.36-.55,2.83-.79,4.29-.7,5.9.35,22.4.29,25.83-10.95.05-.17.09-.34.13-.51.3-1.57,1.3-9.29-6.37-13.77-2.74-1.6-4.46-4.48-4.78-7.63Z"/>
  <path class="cls-3" d="M846.9,1767.21l10.8-9.97c.4-.37,1.05-.22,1.25.3,1.11,2.93,2.92,11.09-11.53,11.02-.7,0-1.04-.87-.53-1.35Z"/>
  <path class="cls-3" d="M821.81,1725.52c-.32-.72-1.37-.62-1.49.16-.31,1.98-.23,4.17,1.19,5.38,0,0,8.99,14.44,31.07,14,.01,0,.02,0,.03,0,.3-.02,7.01-.48,13.35,2.44.03.02.06.03.1.04.77.21,10.38,2.63,10.45-4.95,0-.06,0-.11-.01-.16-.19-.95-2.39-10.1-16.72-10.03-.05,0-.1,0-.15.01-1.01.22-13.37,2.7-25.43-.99-.05-.01-.09-.02-.14-.03-.85-.06-9.99-.85-12.24-5.87Z"/>
  <path class="cls-3" d="M809.49,1696.91c3.25.83,6.6,1.92,9.47,3.7,2.32,1.45,4.57,4.04,3.87,6.98-.45,1.88,2.44,2.68,2.89.8.95-3.97-1.32-7.6-4.46-9.84-1.54-1.1-3.29-1.87-5.03-2.58-1.93-.79-3.92-1.43-5.94-1.95-1.87-.48-2.67,2.42-.8,2.89h0Z"/>
  <path class="cls-3" d="M804.17,1703.35c1.06.2,2.12.4,3.17.68s1.9.59,2.82,1.14c.19.11.37.24.56.36.21.14,0-.01.11.08.1.08.19.16.28.24.17.15.33.3.48.47.08.09.16.18.25.27.17.18,0-.02.08.1.13.18.25.36.36.55.06.1.12.21.17.32.04.08.14.3.06.1.09.22.16.45.22.69.02.09.04.19.06.28.09.45-.02-.28.02.18.06.78.64,1.54,1.5,1.5.76-.03,1.57-.66,1.5-1.5-.21-2.53-1.7-4.6-3.77-6s-4.64-1.91-7.08-2.36c-.77-.14-1.65.21-1.85,1.05-.17.74.22,1.69,1.05,1.85h0Z"/>
  <ellipse class="cls-1" cx="756.5" cy="1603" rx="7" ry="12.5"/>
  <ellipse class="cls-3" cx="753.16" cy="1603.25" rx="4.34" ry="7.75"/>
  <ellipse class="cls-1" cx="726" cy="1604" rx="10.5" ry="12.5"/>
  <ellipse class="cls-3" cx="719.88" cy="1603.75" rx="4.62" ry="8.25"/>
</svg>