<?xml version="1.0" encoding="UTF-8"?>
<svg id="_圖層_4" data-name="圖層_4" xmlns="http://www.w3.org/2000/svg" viewBox="0 0 1382 2213">
  <defs>
    <style>
      .cls-1, .cls-2 {
        fill: #fff;
      }

      .cls-3 {
        letter-spacing: .06em;
      }

      .cls-4 {
        letter-spacing: .08em;
      }

      .cls-2 {
        font-family: ArialMT, Arial;
        font-size: 28.15px;
      }

      .cls-5 {
        letter-spacing: .02em;
      }
    </style>
  </defs>
  <g>
    <path class="cls-1" d="M156.66,1511.01c-16.27,0-29.5-13.24-29.5-29.5s13.24-29.5,29.5-29.5,29.5,13.24,29.5,29.5-13.24,29.5-29.5,29.5ZM156.66,1454.31c-14.99,0-27.19,12.2-27.19,27.19s12.2,27.19,27.19,27.19,27.19-12.2,27.19-27.19-12.2-27.19-27.19-27.19Z"/>
    <g>
      <path class="cls-1" d="M156.84,1458.52c2.39,0,4.46.91,6.22,2.72s2.63,4.08,2.63,6.8-.88,5.12-2.65,6.97c-1.77,1.85-3.9,2.77-6.41,2.77s-4.67-.9-6.39-2.7c-1.73-1.8-2.59-4.14-2.59-7s1-5.31,2.99-7.16c1.73-1.6,3.8-2.41,6.21-2.41ZM156.58,1459.51c-1.65,0-2.97.61-3.97,1.83-1.24,1.52-1.86,3.75-1.86,6.69s.64,5.32,1.93,6.94c.99,1.23,2.29,1.85,3.91,1.85,1.73,0,3.16-.67,4.29-2.02s1.69-3.48,1.69-6.39c0-3.15-.62-5.5-1.86-7.05-1-1.23-2.37-1.85-4.13-1.85Z"/>
      <path class="cls-1" d="M164.19,1486.06l.2,4.32h-.52c-.1-.76-.24-1.3-.41-1.63-.28-.53-.65-.91-1.12-1.16s-1.08-.37-1.84-.37h-2.6v14.08c0,1.13.12,1.84.37,2.12.34.38.87.57,1.59.57h.64v.5h-7.81v-.5h.65c.78,0,1.33-.24,1.66-.71.2-.29.3-.95.3-1.98v-14.08h-2.22c-.86,0-1.47.06-1.83.19-.47.17-.87.5-1.21.99s-.53,1.15-.6,1.98h-.52l.22-4.32h15.04Z"/>
      <rect class="cls-1" x="147.4" y="1481.14" width="18.51" height="1.16"/>
    </g>
  </g>
  <text class="cls-2" transform="translate(196.73 1489.01)"><tspan class="cls-4" x="0" y="0">One</tspan><tspan class="cls-3" x="59.55" y="0"> </tspan><tspan class="cls-5" x="68.98" y="0">T</tspan><tspan class="cls-4" x="86.73" y="0">wo Studio</tspan></text>
</svg>